<?xml version="1.0" encoding="UTF-8" standalone="no"?>
<!DOCTYPE svg PUBLIC "-//W3C//DTD SVG 1.1//EN" "http://www.w3.org/Graphics/SVG/1.1/DTD/svg11.dtd">
<svg width="100%" height="100%" viewBox="0 0 400 400" version="1.1" xmlns="http://www.w3.org/2000/svg" xmlns:xlink="http://www.w3.org/1999/xlink" xml:space="preserve" xmlns:serif="http://www.serif.com/" style="fill:none;fill-rule:evenodd;clip-rule:evenodd;stroke-linejoin:round;stroke-miterlimit:2;">
    <g transform="matrix(0.23314,0,0,0.23314,199.61,131.906)">
        <g id="acc-2.svg" transform="matrix(1,0,0,1,-400,-400)">
            <clipPath id="_clip1">
                <rect x="0" y="0" width="800" height="800"/>
            </clipPath>
            <g clip-path="url(#_clip1)">
                <g>
                    <path d="M103.475,300.425C76.319,310.571 60.529,333.678 57.703,358.124C56.818,365.806 56.737,375.93 57.662,387.173L152.653,292.178C132.268,293.524 114.607,296.261 103.475,300.425Z" style="fill:rgb(242,242,242);fill-rule:nonzero;"/>
                    <path d="M103.475,300.425C76.319,310.571 60.529,333.678 57.703,358.124C56.818,365.806 56.737,375.93 57.662,387.173L152.653,292.178C132.268,293.524 114.607,296.261 103.475,300.425Z" style="fill:rgb(5,41,61);fill-opacity:0.73;fill-rule:nonzero;"/>
                    <path d="M294.524,306.385C284.627,302.046 270.551,298.64 254.385,296.16L83.246,467.296C85.227,470.162 87.291,472.951 89.537,475.542C101.687,489.522 114.8,499.304 129.349,505.401C148.125,513.287 167.153,515.343 167.153,515.343L195.016,515.343C195.016,515.343 251.463,513.235 288.557,479.528C320.911,450.126 334.604,391.136 334.329,360.132C334.199,346.446 320.792,317.91 294.524,306.385Z" style="fill:rgb(242,242,242);fill-rule:nonzero;"/>
                    <path d="M294.524,306.385C284.627,302.046 270.551,298.64 254.385,296.16L83.246,467.296C85.227,470.162 87.291,472.951 89.537,475.542C101.687,489.522 114.8,499.304 129.349,505.401C148.125,513.287 167.153,515.343 167.153,515.343L195.016,515.343C195.016,515.343 251.463,513.235 288.557,479.528C320.911,450.126 334.604,391.136 334.329,360.132C334.199,346.446 320.792,317.91 294.524,306.385Z" style="fill:rgb(5,41,61);fill-opacity:0.73;fill-rule:nonzero;"/>
                    <path d="M195.258,291.331L63.726,422.869C65.221,428.528 67.002,434.172 69.077,439.693L216.558,292.219C209.509,291.784 202.374,291.487 195.258,291.331Z" style="fill:rgb(242,242,242);fill-rule:nonzero;"/>
                    <path d="M195.258,291.331L63.726,422.869C65.221,428.528 67.002,434.172 69.077,439.693L216.558,292.219C209.509,291.784 202.374,291.487 195.258,291.331Z" style="fill:rgb(5,41,61);fill-opacity:0.73;fill-rule:nonzero;"/>
                    <path d="M505.472,306.385C479.201,317.91 465.794,346.446 465.671,360.132C465.552,373.781 468.143,392.854 473.832,412.437L594.614,291.639C559.249,293.078 524.586,298.001 505.472,306.385Z" style="fill:rgb(242,242,242);fill-rule:nonzero;"/>
                    <path d="M505.472,306.385C479.201,317.91 465.794,346.446 465.671,360.132C465.552,373.781 468.143,392.854 473.832,412.437L594.614,291.639C559.249,293.078 524.586,298.001 505.472,306.385Z" style="fill:rgb(5,41,61);fill-opacity:0.73;fill-rule:nonzero;"/>
                    <path d="M636.446,291.591L485.335,442.709C487.719,447.665 490.343,452.457 493.195,457.038L657.281,292.955C650.674,292.342 643.685,291.885 636.446,291.591Z" style="fill:rgb(242,242,242);fill-rule:nonzero;"/>
                    <path d="M636.446,291.591L485.335,442.709C487.719,447.665 490.343,452.457 493.195,457.038L657.281,292.955C650.674,292.342 643.685,291.885 636.446,291.591Z" style="fill:rgb(5,41,61);fill-opacity:0.73;fill-rule:nonzero;"/>
                    <path d="M742.304,358.121C739.471,333.678 723.67,310.571 696.521,300.421C695.357,299.986 694.123,299.57 692.825,299.164L511.982,479.996C544.154,508.837 590.465,514.239 602.184,515.161C603.422,514.771 604.423,514.864 605.174,515.343L632.835,515.343C632.835,515.343 651.86,513.287 670.655,505.401C685.192,499.3 698.313,489.522 710.448,475.542C738.951,442.738 745.42,385.373 742.304,358.121Z" style="fill:rgb(242,242,242);fill-rule:nonzero;"/>
                    <path d="M742.304,358.121C739.471,333.678 723.67,310.571 696.521,300.421C695.357,299.986 694.123,299.57 692.825,299.164L511.982,479.996C544.154,508.837 590.465,514.239 602.184,515.161C603.422,514.771 604.423,514.864 605.174,515.343L632.835,515.343C632.835,515.343 651.86,513.287 670.655,505.401C685.192,499.3 698.313,489.522 710.448,475.542C738.951,442.738 745.42,385.373 742.304,358.121Z" style="fill:rgb(5,41,61);fill-opacity:0.73;fill-rule:nonzero;"/>
                    <path d="M152.65,292.175L57.659,387.169C58.577,398.334 60.484,410.604 63.726,422.869L195.258,291.331C180.575,291.011 166.031,291.293 152.65,292.175Z" style="fill:rgb(242,242,242);fill-rule:nonzero;"/>
                    <path d="M216.558,292.223L69.077,439.697C72.776,449.539 77.472,458.934 83.246,467.299L254.385,296.164C242.621,294.353 229.761,293.041 216.558,292.223Z" style="fill:rgb(242,242,242);fill-rule:nonzero;"/>
                    <path d="M594.618,291.639L473.836,412.437C476.799,422.624 480.636,432.93 485.339,442.709L636.449,291.591C623.02,291.048 608.765,291.063 594.618,291.639Z" style="fill:rgb(242,242,242);fill-rule:nonzero;"/>
                    <path d="M657.281,292.959L493.195,457.041C498.467,465.504 504.498,473.226 511.439,479.532C511.618,479.691 511.804,479.84 511.982,480L692.825,299.168C683.742,296.346 671.406,294.283 657.281,292.959Z" style="fill:rgb(242,242,242);fill-rule:nonzero;"/>
                    <path d="M39.794,312.345C50.342,311.367 60.652,307.556 59.7,304.403C58.696,301.105 49.293,299.436 37.797,300.425C26.264,301.41 17.073,305.195 17.895,308.381C18.899,312.189 28.301,313.445 39.794,312.345Z" style="fill:rgb(242,242,242);fill-rule:nonzero;"/>
                    <path d="M761.192,300.347C749.64,299.447 739.951,301.689 740.256,304.957C740.627,308.872 749.71,311.649 761.214,312.445C771.788,313.17 782.57,311.066 782.135,307.805C781.685,304.403 772.695,301.235 761.192,300.347Z" style="fill:rgb(242,242,242);fill-rule:nonzero;"/>
                    <path d="M577.103,270.562C502.828,274.105 437.444,307.496 398.003,308.378C357.845,309.277 316.13,278.173 218.9,270.562C100.297,261.293 0,284.501 0,284.501L3.967,330.28C3.967,330.28 24.081,334.891 29.837,358.117C37.845,390.434 35.139,447.81 63.671,481.513C97.014,520.905 130.725,529.315 165.168,531.271C198.79,533.16 274.525,528.747 316.412,481.513C332.321,463.574 345.111,439.21 354.228,415.839C364.623,389.169 371.279,360.377 382.09,352.157C386.054,349.149 391.62,350.071 398.003,350.164C406.789,350.287 414.329,350.209 419.899,356.135C433.436,370.516 439.318,402.71 451.736,431.77C459.875,450.799 473.092,469.776 487.551,485.491C524.798,525.951 608.668,533.078 638.807,531.271C671.964,529.271 709.229,517.674 732.344,487.492C743.583,472.791 751.317,454.554 756.221,435.748C763.292,408.563 765.278,380.235 770.163,360.128C776.64,333.411 794.033,332.258 794.033,332.258L800,284.497C800,284.501 699.484,264.721 577.103,270.562ZM288.557,479.528C251.459,513.231 195.016,515.343 195.016,515.343L167.153,515.343C167.153,515.343 148.125,513.287 129.349,505.401C114.8,499.3 101.687,489.522 89.537,475.542C87.291,472.954 85.224,470.166 83.246,467.296C77.472,458.93 72.78,449.539 69.077,439.693C67.002,434.172 65.221,428.528 63.726,422.869C60.484,410.604 58.577,398.334 57.659,387.169C56.733,375.926 56.815,365.802 57.699,358.121C60.529,333.678 76.319,310.571 103.472,300.421C114.603,296.261 132.264,293.524 152.646,292.175C166.027,291.29 180.572,291.011 195.254,291.331C202.37,291.487 209.505,291.784 216.554,292.219C229.753,293.041 242.617,294.353 254.377,296.16C270.543,298.64 284.62,302.046 294.517,306.385C320.784,317.91 334.192,346.446 334.322,360.132C334.604,391.136 320.911,450.126 288.557,479.528ZM17.895,308.378C17.069,305.191 26.264,301.406 37.797,300.421C49.293,299.432 58.696,301.105 59.7,304.399C60.655,307.552 50.342,311.363 39.794,312.341C28.301,313.445 18.899,312.189 17.895,308.378ZM761.214,312.445C749.71,311.649 740.627,308.872 740.256,304.957C739.951,301.689 749.636,299.447 761.192,300.347C772.695,301.235 781.685,304.403 782.135,307.805C782.57,311.066 771.788,313.17 761.214,312.445ZM670.655,505.401C651.86,513.287 632.835,515.343 632.835,515.343L605.174,515.343C604.426,514.864 603.422,514.771 602.184,515.161C590.469,514.239 544.158,508.837 511.982,479.996C511.804,479.836 511.618,479.688 511.439,479.528C504.498,473.222 498.467,465.504 493.195,457.038C490.34,452.453 487.715,447.665 485.335,442.709C480.632,432.93 476.795,422.628 473.832,412.437C468.143,392.85 465.548,373.781 465.671,360.132C465.794,346.446 479.201,317.91 505.472,306.385C524.586,298.001 559.249,293.078 594.618,291.639C608.769,291.063 623.024,291.048 636.446,291.591C643.685,291.885 650.674,292.342 657.281,292.959C671.406,294.286 683.742,296.35 692.825,299.168C694.127,299.57 695.361,299.99 696.521,300.425C723.673,310.571 739.475,333.678 742.304,358.124C745.42,385.377 738.951,442.742 710.448,475.546C698.313,489.522 685.192,499.304 670.655,505.401Z" style="fill:rgb(5,41,61);fill-rule:nonzero;"/>
                </g>
            </g>
        </g>
        <g id="acc-2.svg1" serif:id="acc-2.svg">
        </g>
    </g>
</svg>
