<?xml version="1.0" encoding="UTF-8" standalone="no"?>
<!DOCTYPE svg PUBLIC "-//W3C//DTD SVG 1.1//EN" "http://www.w3.org/Graphics/SVG/1.1/DTD/svg11.dtd">
<svg width="100%" height="100%" viewBox="0 0 400 400" version="1.1" xmlns="http://www.w3.org/2000/svg" xmlns:xlink="http://www.w3.org/1999/xlink" xml:space="preserve" xmlns:serif="http://www.serif.com/" style="fill-rule:evenodd;clip-rule:evenodd;stroke-linecap:round;stroke-linejoin:round;stroke-miterlimit:1.5;">
    <g transform="matrix(0.499922,0,0,0.49999,-0.362626,15.2003)">
        <g>
            <g>
                <g transform="matrix(1,0,0,1,-19.0965,0)">
                    <rect x="333.674" y="560.968" width="19.096" height="103.861" style="fill:rgb(233,212,65);stroke:black;stroke-width:4px;"/>
                </g>
                <g transform="matrix(1,0,0,1,35.5047,-21.8651)">
                    <path d="M331.347,693.235C333.134,695.302 333.657,698.176 332.714,700.741C331.77,703.305 329.508,705.155 326.808,705.571C314.751,708.195 303.744,714.178 291.54,714.178C278.432,714.178 265.096,707.885 250.752,705.253C248.011,704.924 245.675,703.11 244.679,700.535C243.683,697.961 244.189,695.048 245.995,692.96C245.926,692.899 245.926,692.899 245.926,692.899C256.337,680.86 271.468,673.942 287.385,673.942C287.974,673.942 288.565,673.942 289.155,673.942C305.353,673.942 320.751,680.983 331.345,693.234C331.346,693.234 331.346,693.234 331.347,693.235Z" style="fill:rgb(233,212,65);stroke:black;stroke-width:4px;"/>
                </g>
            </g>
            <g transform="matrix(1,0,0,1,148.611,0)">
                <g transform="matrix(1,0,0,1,-19.0965,0)">
                    <rect x="333.674" y="560.968" width="19.096" height="103.861" style="fill:rgb(233,212,65);stroke:black;stroke-width:4px;"/>
                </g>
                <g transform="matrix(1,0,0,1,35.5047,-21.8651)">
                    <path d="M331.347,693.235C333.134,695.302 333.657,698.176 332.714,700.741C331.77,703.305 329.508,705.155 326.808,705.571C314.751,708.195 303.744,714.178 291.54,714.178C278.432,714.178 265.096,707.885 250.752,705.253C248.011,704.924 245.675,703.11 244.679,700.535C243.683,697.961 244.189,695.048 245.995,692.96C245.926,692.899 245.926,692.899 245.926,692.899C256.337,680.86 271.468,673.942 287.385,673.942C287.974,673.942 288.565,673.942 289.155,673.942C305.353,673.942 320.751,680.983 331.345,693.234C331.346,693.234 331.346,693.234 331.347,693.235Z" style="fill:rgb(233,212,65);stroke:black;stroke-width:4px;"/>
                </g>
            </g>
        </g>
        <g transform="matrix(1,0,0,1,-25.3901,-139.614)">
            <path d="M425.39,466.134C425.39,466.134 286.93,563.576 286.93,605.337C286.93,681.745 348.972,743.779 425.39,743.779C501.808,743.779 563.85,681.745 563.85,605.337C563.85,563.576 425.39,466.134 425.39,466.134Z" style="fill:rgb(225,211,184);stroke:black;stroke-width:4px;"/>
        </g>
        <g transform="matrix(1,0,0,1,-8.87835,0.825893)">
            <g transform="matrix(1,0,0,1,-19.3025,-126.507)">
                <circle cx="428.181" cy="361.83" r="163.85" style="fill:rgb(225,211,184);stroke:black;stroke-width:5px;"/>
            </g>
            <g transform="matrix(2.52327,0,0,2.52327,-535.859,-300.821)">
                <circle cx="345.003" cy="203.619" r="19.863" style="fill:rgb(35,28,28);"/>
            </g>
            <g>
                <g transform="matrix(2.52327,0,0,2.52327,-392.598,-300.821)">
                    <circle cx="345.003" cy="203.619" r="19.863" style="fill:rgb(35,28,28);"/>
                </g>
                <g transform="matrix(0.620288,0,0,0.814061,138.079,40.1513)">
                    <circle cx="345.003" cy="203.619" r="19.863" style="fill:rgb(255,249,249);"/>
                </g>
            </g>
            <g transform="matrix(1,0,0,1,143.261,0)">
                <g transform="matrix(2.52327,0,0,2.52327,-535.859,-300.821)">
                    <circle cx="345.003" cy="203.619" r="19.863" style="fill:rgb(35,28,28);"/>
                </g>
                <g transform="matrix(0.620288,0,0,0.814061,109.98,39.1409)">
                    <circle cx="345.003" cy="203.619" r="19.863" style="fill:rgb(255,249,249);"/>
                </g>
            </g>
        </g>
        <g transform="matrix(1,0,0,1,-11.5978,5.53464)">
            <path d="M336.04,83.662L326.666,61.046C326.666,61.046 340.318,63.924 352.705,66.536C356.421,67.319 360.26,65.931 362.614,62.952C364.969,59.974 365.434,55.918 363.814,52.484C361.766,48.143 360.161,44.74 360.161,44.74C360.161,44.74 391.137,54.923 406.148,59.857C410.756,61.372 415.788,59.361 418.083,55.088C421.352,49.001 425.452,41.366 425.452,41.366C425.452,41.366 451.107,57.44 463.54,65.23C467.421,67.662 472.458,67.147 475.767,63.981C478.027,61.818 480.107,59.827 480.107,59.827L496.545,92.163" style="fill:rgb(225,211,184);stroke:black;stroke-width:5px;"/>
        </g>
        <g transform="matrix(1.03276,0,0,1.03276,-13.1114,-10.6962)">
            <path d="M503.086,293.492C506.108,293.492 508.967,294.858 510.866,297.209C512.765,299.56 513.498,302.644 512.862,305.598C502.93,352.593 456.145,388.22 400,388.22C343.855,388.22 297.07,352.593 287.154,305.595C286.518,302.645 287.251,299.567 289.146,297.219C291.042,294.872 293.897,293.507 296.914,293.507C314.296,293.501 349.215,293.497 386.086,293.495C432.192,293.492 481.351,293.492 503.086,293.492ZM338.847,293.492C340.879,277.497 367.502,264.821 400,264.821C432.498,264.821 459.121,277.497 461.153,293.492L338.847,293.492Z" style="fill:rgb(142,129,35);"/>
        </g>
        <path d="M503.086,293.492C506.108,293.492 508.967,294.858 510.866,297.209C512.765,299.56 513.498,302.644 512.862,305.598C502.93,352.593 456.145,388.22 400,388.22C343.855,388.22 297.07,352.593 287.154,305.595C286.518,302.645 287.251,299.567 289.146,297.219C291.042,294.872 293.897,293.507 296.914,293.507C314.296,293.501 349.215,293.497 386.086,293.495C432.192,293.492 481.351,293.492 503.086,293.492ZM338.847,293.492C340.879,277.497 367.502,264.821 400,264.821C432.498,264.821 459.121,277.497 461.153,293.492L338.847,293.492Z" style="fill:rgb(233,212,65);"/>
        <g transform="matrix(4.21466e-17,-0.688307,1.34687,8.2472e-17,-124.712,576.926)">
            <path d="M367.822,326.521C354.502,331.776 343.688,358.225 343.688,389.585C343.688,420.945 354.502,447.394 367.822,452.649C376.701,442.138 383.911,417.499 383.911,389.585C383.911,361.671 376.701,337.031 367.822,326.521Z" style="fill-opacity:0.49;"/>
        </g>
        <path d="M513.086,413.452C524.617,413.565 586.17,483.469 598.806,502.874C604.038,510.91 598.488,529.978 588.899,529.884C577.369,529.771 541.521,520.471 529.621,502.195C516.986,482.79 501.555,413.339 513.086,413.452Z" style="fill:rgb(225,211,184);stroke:black;stroke-width:4px;"/>
        <g transform="matrix(-1,0,0,1,801.576,0)">
            <path d="M513.086,413.452C524.617,413.565 586.17,483.469 598.806,502.874C604.038,510.91 598.488,529.978 588.899,529.884C577.369,529.771 541.521,520.471 529.621,502.195C516.986,482.79 501.555,413.339 513.086,413.452Z" style="fill:rgb(225,211,184);stroke:black;stroke-width:4px;"/>
        </g>
    </g>
</svg>
