<?xml version="1.0" encoding="UTF-8" standalone="no"?>
<!DOCTYPE svg PUBLIC "-//W3C//DTD SVG 1.1//EN" "http://www.w3.org/Graphics/SVG/1.1/DTD/svg11.dtd">
<svg width="100%" height="100%" viewBox="0 0 400 400" version="1.1" xmlns="http://www.w3.org/2000/svg" xmlns:xlink="http://www.w3.org/1999/xlink" xml:space="preserve" xmlns:serif="http://www.serif.com/" style="fill-rule:evenodd;clip-rule:evenodd;stroke-linejoin:round;stroke-miterlimit:2;">
    <g transform="matrix(0.149369,0,0,0.149369,200,132.53)">
        <g id="acc-3.svg" transform="matrix(1,0,0,1,-640,-320)">
            <g transform="matrix(0.1,0,0,-0.1,0,640)">
                <path d="M2910,5554C2709,5541 2541,5526 2450,5514C1552,5391 918,5059 592,4539C495,4385 406,4162 351,3935L324,3825L186,3820C50,3815 48,3815 24,3787C1,3760 0,3755 0,3580L0,3400L29,3368C58,3336 60,3335 158,3332L257,3328L264,3157C286,2574 461,2082 786,1690C878,1579 1092,1374 1200,1293C1436,1116 1656,1004 1915,929C2938,631 4003,1110 5020,2325C5657,3086 5937,3795 5823,4362C5818,4388 5821,4392 5871,4414C5994,4468 6134,4493 6310,4493C6507,4492 6703,4445 6820,4370C6893,4323 6891,4327 6879,4205C6850,3920 6938,3553 7122,3185C7435,2562 8105,1796 8720,1360C9306,945 9924,775 10520,865C10995,936 11411,1152 11775,1515C11970,1709 12097,1885 12210,2115C12366,2434 12444,2756 12457,3142L12463,3329L12602,3332L12742,3335L12771,3368L12800,3400L12800,3762L12742,3820L12401,3820L12391,3858C12386,3878 12374,3924 12366,3960C12341,4073 12272,4270 12220,4377C12012,4814 11654,5116 11099,5323C10814,5430 10485,5497 10025,5541C9855,5558 9246,5558 9075,5542C8748,5510 8514,5477 8313,5434L8200,5410L6362,5410C4556,5410 4522,5410 4429,5430C4220,5475 3938,5515 3660,5540C3542,5551 3009,5561 2910,5554ZM7480,5152C7238,4986 7076,4808 6985,4610C6969,4574 6955,4543 6953,4541C6952,4539 6916,4555 6873,4577C6733,4649 6601,4684 6415,4699C6199,4716 5957,4680 5788,4606L5752,4590L5711,4664C5620,4830 5469,4995 5311,5101C5267,5131 5231,5158 5230,5163C5230,5167 5742,5170 6368,5169C7441,5169 7504,5168 7480,5152Z" style="fill:rgb(56,54,54);fill-rule:nonzero;"/>
            </g>
        </g>
        <g id="acc-3.svg1" serif:id="acc-3.svg">
        </g>
    </g>
</svg>
