<?xml version="1.0" encoding="UTF-8" standalone="no"?>
<!DOCTYPE svg PUBLIC "-//W3C//DTD SVG 1.1//EN" "http://www.w3.org/Graphics/SVG/1.1/DTD/svg11.dtd">
<svg width="100%" height="100%" viewBox="0 0 400 400" version="1.1" xmlns="http://www.w3.org/2000/svg" xmlns:xlink="http://www.w3.org/1999/xlink" xml:space="preserve" xmlns:serif="http://www.serif.com/" style="fill-rule:evenodd;clip-rule:evenodd;stroke-linecap:round;stroke-linejoin:round;stroke-miterlimit:1.5;">
    <g transform="matrix(0.93911,0,0,1,10.4046,-3.99341)">
        <g transform="matrix(0.884291,0,0,0.884291,360.887,-31.9808)">
            <circle cx="-123.787" cy="174.235" r="40.962" style="fill:white;stroke:black;stroke-width:2.33px;"/>
        </g>
        <g transform="matrix(0.884291,0,0,0.884291,257.037,-31.9808)">
            <circle cx="-123.787" cy="174.235" r="40.962" style="fill:white;stroke:black;stroke-width:2.33px;"/>
        </g>
        <g transform="matrix(0.274251,0,0,0.275655,199.606,122.093)">
            <g transform="matrix(1,0,0,1,-400,-400)">
                <g id="Page-1">
                    <g id="_003---Glasses" serif:id="003---Glasses">
                        <path id="Shape" d="M786.667,386.667L732.653,386.667C726.548,319.977 676.045,265.892 609.929,255.238C543.813,244.585 478.877,280.069 452.133,341.467C449.067,333.733 438.267,320 400,320C361.733,320 350.933,333.733 347.867,341.467C321.123,280.069 256.187,244.585 190.071,255.238C123.955,265.892 73.452,319.977 67.347,386.667L13.333,386.667C5.97,386.667 0,392.636 0,400C0,407.364 5.97,413.333 13.333,413.333L67.347,413.333C74.849,491.087 141.977,549.316 220.011,545.761C298.044,542.206 359.599,478.114 360,400C360,400 360,373.333 400,373.333C440,373.333 440,400 440,400C440.004,412.274 441.526,424.5 444.533,436.4C445.333,439.467 446.133,442.4 447.2,445.333C468.797,511.435 533.846,553.284 602.953,545.536C672.061,537.789 726.228,482.576 732.653,413.333L786.667,413.333C794.03,413.333 800,407.364 800,400C800,392.636 794.03,386.667 786.667,386.667ZM119.467,452.4C112.656,455.084 104.95,451.824 102.133,445.067C100.071,440.191 98.421,435.151 97.2,430C95.561,425.259 96.722,419.999 100.204,416.389C103.687,412.778 108.901,411.427 113.698,412.893C118.495,414.359 122.064,418.393 122.933,423.333C124.001,427.27 125.292,431.143 126.8,434.933C129.564,441.781 126.291,449.577 119.467,452.4ZM213.333,306.667C170.773,306.686 133.605,335.466 122.933,376.667C121.411,382.562 116.089,386.677 110,386.667C108.877,386.657 107.759,386.523 106.667,386.267C99.57,384.377 95.337,377.104 97.2,370C110.875,317.038 158.634,280.026 213.333,280C220.697,280 226.667,285.97 226.667,293.333C226.667,300.697 220.697,306.667 213.333,306.667ZM492.8,452.4C485.989,455.084 478.283,451.824 475.467,445.067C474.4,442.667 473.6,440.267 472.667,437.733C471.733,435.2 471.2,432.533 470.533,430C468.67,422.896 472.903,415.623 480,413.733C481.781,413.25 483.647,413.159 485.467,413.467C490.72,414.291 494.972,418.176 496.267,423.333C497.334,427.27 498.625,431.143 500.133,434.933C502.897,441.781 499.624,449.577 492.8,452.4ZM586.667,306.667C544.107,306.686 506.939,335.466 496.267,376.667C494.759,382.349 489.74,386.397 483.867,386.667L483.2,386.667C482.121,386.657 481.048,386.523 480,386.267C472.903,384.377 468.67,377.104 470.533,370C472.253,363.48 474.482,357.105 477.2,350.933C496.531,307.79 539.391,280.017 586.667,280C594.03,280 600,285.97 600,293.333C600,300.697 594.03,306.667 586.667,306.667Z" style="fill-rule:nonzero;"/>
                    </g>
                </g>
            </g>
        </g>
    </g>
</svg>
