<?xml version="1.0" encoding="UTF-8" standalone="no"?>
<!DOCTYPE svg PUBLIC "-//W3C//DTD SVG 1.1//EN" "http://www.w3.org/Graphics/SVG/1.1/DTD/svg11.dtd">
<svg width="100%" height="100%" viewBox="0 0 400 400" version="1.1" xmlns="http://www.w3.org/2000/svg" xmlns:xlink="http://www.w3.org/1999/xlink" xml:space="preserve" xmlns:serif="http://www.serif.com/" style="fill-rule:evenodd;clip-rule:evenodd;stroke-linejoin:round;stroke-miterlimit:2;">
    <g transform="matrix(0.392576,0,0,0.304212,192.92,133.273)">
        <g id="hair-2.svg" transform="matrix(1,0,0,1,-400,-400)">
            <g transform="matrix(1,0,0,1,-0.000980332,0.0042418)">
                <g>
                    <path d="M341.346,26.363C341.346,26.363 188.786,33.65 170.635,215.242C170.635,215.242 168.832,264.252 136.145,284.214C136.145,284.214 85.281,316.897 110.724,404.049C110.724,404.049 121.629,458.543 74.393,489.419C74.393,489.419 34.452,523.926 59.903,572.97C59.903,572.97 76.251,589.331 47.177,618.37C47.177,618.37 28.881,588.782 72.474,650.526C72.474,650.526 94.847,649.735 105.727,638.821C105.727,638.821 134.001,670.385 124.949,701.304C124.949,701.304 110.621,662.114 199.58,654.873C199.58,654.873 271.552,642.505 260.671,506.36C260.671,506.36 246.954,469.491 250.568,400.46L263.285,298.784C263.285,298.784 305.066,247.984 308.689,227.98C308.689,227.98 337.745,271.548 301.41,304.235C301.41,304.235 364.986,289.698 343.196,198.89C343.196,198.89 357.699,166.207 366.802,168.043C366.802,168.043 410.059,228.1 500.893,233.564C500.893,233.564 518.871,319.236 575.181,328.347C575.181,328.347 586.377,464.64 556.899,535.964C626.134,564.032 517.495,592.14 622.658,594.03C622.658,594.03 577.235,645.906 640.794,660.434C640.794,660.434 623.004,617.361 675.666,617.361C675.666,617.361 703.375,635.407 718.068,607.369C718.068,607.369 700.941,612.966 720.924,545.793C720.924,545.793 753.599,520.401 708.195,487.676C708.195,487.676 699.117,474.951 715.533,460.448C715.533,460.448 771.805,413.211 677.369,309.698L673.781,215.263C673.781,215.263 648.356,73.629 475.85,6.409C475.786,6.388 352.252,-17.239 341.346,26.363Z" style="fill:rgb(22,7,7);fill-rule:nonzero;"/>
                </g>
            </g>
        </g>
        <g id="hair-2.svg1" serif:id="hair-2.svg">
        </g>
    </g>
</svg>
