<?xml version="1.0" encoding="UTF-8" standalone="no"?>
<!DOCTYPE svg PUBLIC "-//W3C//DTD SVG 1.1//EN" "http://www.w3.org/Graphics/SVG/1.1/DTD/svg11.dtd">
<svg width="100%" height="100%" viewBox="0 0 400 400" version="1.1" xmlns="http://www.w3.org/2000/svg" xmlns:xlink="http://www.w3.org/1999/xlink" xml:space="preserve" xmlns:serif="http://www.serif.com/" style="fill-rule:evenodd;clip-rule:evenodd;stroke-linejoin:round;stroke-miterlimit:2;">
    <g transform="matrix(0.202724,0,0,0.196057,187.245,110.208)">
        <g id="hair-3.svg" transform="matrix(1,0,0,1,-640,-535.5)">
            <g transform="matrix(0.1,0,0,-0.1,0,1071)">
                <path d="M3535,10704C3217,10686 3053,10674 2801,10649C2640,10634 2506,10619 2504,10617C2502,10615 2630,10594 2788,10571C3844,10413 4321,10311 4692,10161C4802,10117 4990,10021 5091,9957C5172,9906 5363,9768 5358,9765C5356,9765 5285,9768 5200,9772C5039,9781 4792,9776 4585,9759C3669,9687 2700,9397 1620,8873C1360,8747 859,8478 930,8503C938,8506 1085,8562 1256,8629C1733,8813 2112,8938 2415,9010C2570,9047 2585,9047 2490,9009C2298,8931 2047,8798 1858,8674C1245,8270 614,7593 102,6788C1,6629 2,6630 36,6661C556,7122 1151,7554 1641,7828C1776,7903 2021,8028 2005,8013C2000,8008 1946,7968 1885,7924C1108,7365 510,6452 108,5210C80,5125 55,5051 52,5045C49,5040 49,5037 52,5040C56,5043 94,5115 138,5200C489,5886 938,6430 1507,6856C1618,6939 1835,7085 1866,7097C1878,7101 1876,7093 1858,7064C1828,7017 1731,6827 1697,6749C1684,6718 1637,6640 1593,6574C1476,6399 1371,6214 1260,5987C929,5310 722,4535 620,3592C597,3378 596,3351 617,3440C722,3894 883,4338 1091,4752C1168,4905 1354,5227 1380,5254C1385,5259 1386,5199 1383,5114L1378,4965L1330,4845C1279,4718 1227,4556 1185,4400C1152,4274 1090,3999 1091,3980C1091,3972 1108,4012 1129,4070C1192,4243 1298,4492 1367,4625L1388,4664L1393,4625C1397,4603 1402,4540 1406,4485C1412,4375 1454,3987 1469,3899C1475,3866 1475,3815 1470,3774C1449,3611 1438,3479 1425,3235C1410,2962 1406,2407 1420,2450C1424,2464 1429,2498 1430,2525C1431,2553 1435,2588 1439,2605C1442,2621 1444,2461 1443,2250L1441,1865L1460,2005C1499,2297 1557,2601 1614,2810C1639,2904 1649,2929 1654,2910C1848,2119 2011,1572 2269,846C2369,567 2553,79 2557,84C2559,86 2547,130 2531,181C2425,514 2316,974 2246,1380C2173,1799 2135,2180 2122,2595C2114,2868 2120,3279 2132,3245C2136,3234 2166,3124 2199,3000C2268,2745 2354,2444 2429,2197C2479,2034 2480,2025 2481,1897C2483,1766 2484,1765 2496,1890L2503,1955L2515,1915C2577,1719 2855,891 2857,894C2859,896 2848,956 2831,1026C2741,1412 2613,2173 2585,2480C2580,2539 2583,2531 2620,2400C2698,2120 2762,1896 2806,1746C2908,1407 3177,581 3179,603C3180,608 3162,677 3140,757C3095,922 3016,1269 2971,1500C2863,2056 2804,2599 2784,3201C2779,3370 2781,3406 2795,3459C2815,3530 2830,3546 2830,3497C2830,3446 2876,3108 2925,2794C2985,2415 3134,1602 3146,1591C3150,1588 3149,1603 3146,1625C3143,1647 3136,1735 3130,1820C3071,2783 3157,3653 3386,4409C3422,4525 3438,4564 3426,4501C3402,4375 3365,3974 3350,3690C3338,3448 3338,2885 3351,3030C3410,3724 3549,4330 3780,4910C3823,5018 3995,5380 4003,5380C4006,5380 4000,5352 3989,5318C3894,5010 3829,4630 3801,4225C3785,3998 3778,3608 3790,3615C3796,3618 3800,3641 3800,3664C3800,3688 3809,3776 3820,3860C3902,4470 4061,4960 4304,5345C4361,5436 4479,5593 4540,5660C4579,5701 4580,5702 4560,5670C4478,5535 4390,5333 4330,5140C4307,5066 4268,4956 4245,4895C4193,4762 4152,4632 4110,4476C4070,4328 4000,4017 4004,4012C4006,4010 4020,4046 4035,4092C4066,4185 4186,4480 4198,4492C4202,4496 4202,4467 4198,4427C4195,4388 4192,4267 4192,4160C4193,4053 4195,3981 4197,4000C4199,4019 4210,4089 4221,4155C4301,4630 4485,5050 4769,5407C4805,5452 4835,5488 4837,5487C4838,5485 4833,5439 4826,5385C4787,5106 4770,4788 4771,4410C4772,4177 4774,4134 4781,4205C4845,4876 4950,5313 5148,5731C5198,5836 5199,5837 5287,5903C5373,5967 5582,6102 5587,6097C5588,6095 5581,6065 5570,6030C5513,5836 5480,5582 5475,5290L5471,5065L5490,5174C5560,5558 5692,5886 5902,6192C5957,6273 5970,6286 6020,6308C6114,6350 6418,6447 6570,6484C6721,6521 6975,6570 7013,6570C7029,6570 7093,6509 7230,6364L7425,6158L7442,6071C7475,5898 7491,5741 7498,5525L7504,5305L7522,5430C7555,5665 7571,5885 7577,6170L7582,6455L7610,6505C7636,6552 7686,6661 7710,6724L7720,6752L7755,6707C7852,6580 7988,6326 8150,5970C8273,5701 8332,5582 8337,5597C8345,5620 8034,6618 7978,6748C7968,6772 7960,6796 7960,6802C7960,6812 8125,6805 8176,6793C8212,6785 8348,6488 8432,6235C8540,5906 8607,5484 8611,5101C8613,4968 8618,4986 8645,5219C8698,5672 8683,6136 8604,6527C8590,6594 8573,6671 8565,6697C8536,6793 8554,6783 8636,6658C8819,6379 8941,6068 8994,5745C9002,5696 9011,5644 9014,5630C9024,5579 9008,5960 8995,6105C8987,6188 8969,6321 8956,6400C8943,6480 8932,6546 8933,6547C8934,6548 8972,6516 9017,6477C9181,6334 9228,6258 9368,5910C9550,5455 9624,5222 9666,4971C9673,4925 9682,4884 9686,4881C9689,4878 9689,4891 9686,4910C9683,4929 9678,4981 9675,5025C9667,5123 9644,5315 9630,5390C9625,5420 9613,5508 9605,5585C9596,5662 9583,5759 9575,5800C9568,5841 9563,5876 9565,5878C9571,5884 9749,5612 9824,5481C10394,4491 10707,3125 10711,1613C10711,1434 10713,1290 10715,1292C10719,1296 10743,1561 10762,1810C10779,2035 10779,2904 10762,3115C10745,3324 10714,3596 10691,3740C10681,3803 10674,3857 10675,3858C10685,3869 10731,3683 10754,3545C10838,3023 10882,2550 10884,2165C10885,1926 10885,1924 10847,1730C10803,1507 10724,1157 10685,1021C10671,970 10661,926 10663,924C10665,922 10717,1049 10779,1208C10841,1366 10895,1497 10897,1500C10912,1515 10865,548 10844,405C10840,383 10840,367 10843,370C10855,382 11019,1395 11079,1830C11118,2105 11120,2123 11125,2119C11139,2104 11237,1448 11270,1145C11309,779 11307,784 11309,1020C11310,1270 11294,2016 11280,2335L11271,2555L11310,2680C11370,2874 11408,3007 11466,3235L11520,3445L11515,3305C11501,2971 11445,2586 11364,2286C11351,2236 11342,2195 11344,2193C11349,2188 11523,2679 11596,2904L11663,3114L11677,3074C11707,2989 11811,2615 11854,2440C11965,1986 12088,1313 12142,873C12155,765 12170,736 12170,818C12170,844 12177,944 12185,1040C12233,1611 12252,2015 12252,2460C12252,2924 12244,3062 12185,3535L12180,3575L12194,3530C12202,3505 12235,3379 12268,3250C12411,2699 12542,2043 12665,1270C12685,1147 12702,1044 12704,1043C12708,1038 12700,1485 12689,1825C12660,2780 12565,3707 12424,4413C12410,4484 12400,4543 12402,4545C12407,4551 12504,4280 12546,4143C12600,3965 12666,3703 12699,3535C12733,3366 12780,3057 12780,3008C12780,2990 12785,2968 12791,2960C12804,2941 12796,3609 12780,3840C12749,4299 12679,4750 12580,5135C12536,5306 12463,5545 12425,5639C12412,5675 12402,5705 12404,5707C12415,5719 12640,5219 12715,5012C12736,4956 12754,4911 12756,4913C12758,4914 12735,5010 12706,5125C12536,5790 12352,6321 12112,6845C12006,7076 11852,7367 11752,7525L11707,7594L11886,7423C11985,7329 12105,7218 12154,7176C12272,7076 12440,6947 12446,6953C12453,6959 12370,7133 12304,7252C11869,8033 11166,8680 10395,9010C10274,9062 10082,9130 9937,9171C9895,9183 9862,9195 9864,9197C9876,9209 10239,9147 10440,9099C10687,9039 11073,8916 11338,8812L11441,8771L11411,8808C11368,8863 11176,9047 11090,9116C10747,9392 10305,9625 9843,9773C8995,10046 8112,10029 7340,9725C7214,9675 7006,9575 6896,9512C6847,9483 6805,9460 6802,9460C6799,9460 6772,9488 6741,9523C6530,9760 6307,9956 6065,10116C5579,10439 5003,10628 4315,10690C4196,10701 3651,10711 3535,10704ZM7944,7049C7911,7036 7896,7038 7909,7054C7916,7062 7930,7066 7942,7062C7963,7057 7963,7056 7944,7049ZM7942,6913C7945,6875 7946,6844 7945,6842C7944,6841 7934,6863 7922,6892C7911,6921 7899,6953 7895,6963C7889,6976 7893,6980 7913,6980C7936,6980 7938,6977 7942,6913ZM7833,6823C7842,6785 7851,6739 7854,6720L7860,6685L7837,6715C7825,6732 7801,6761 7783,6781L7751,6816L7776,6858C7790,6881 7805,6898 7810,6895C7814,6892 7825,6860 7833,6823Z" style="fill-rule:nonzero;"/>
            </g>
        </g>
        <g id="hair-3.svg1" serif:id="hair-3.svg">
        </g>
    </g>
</svg>
